<mxfile host="app.diagrams.net" modified="2024-03-06T16:13:50.171Z" agent="Mozilla/5.0 (Windows NT 10.0; Win64; x64) AppleWebKit/537.36 (KHTML, like Gecko) Chrome/122.0.0.0 Safari/537.36" etag="1TaSkjEWJXYy0oJf6YTy" version="24.0.2" type="github">
  <diagram name="Page-1" id="e56a1550-8fbb-45ad-956c-1786394a9013">
    <mxGraphModel dx="1411" dy="814" grid="1" gridSize="10" guides="1" tooltips="1" connect="1" arrows="1" fold="1" page="1" pageScale="1" pageWidth="1100" pageHeight="850" background="none" math="0" shadow="0">
      <root>
        <mxCell id="0" />
        <mxCell id="1" parent="0" />
        <mxCell id="2e49270ec7c68f3f-80" value="ASB_PRM_MOTIVO_CANCELACION" style="swimlane;html=1;fontStyle=0;childLayout=stackLayout;horizontal=1;startSize=26;fillColor=#e0e0e0;horizontalStack=0;resizeParent=1;resizeLast=0;collapsible=1;marginBottom=0;swimlaneFillColor=#ffffff;align=center;rounded=0;shadow=0;comic=0;labelBackgroundColor=none;strokeWidth=1;fontFamily=Verdana;fontSize=10;" parent="1" vertex="1">
          <mxGeometry x="95" y="120" width="230" height="82" as="geometry" />
        </mxCell>
        <mxCell id="2e49270ec7c68f3f-81" value="ID_MOTIVO_CANCELACION" style="shape=partialRectangle;top=0;left=0;right=0;bottom=1;html=1;align=left;verticalAlign=middle;fillColor=none;spacingLeft=34;spacingRight=4;whiteSpace=wrap;overflow=hidden;rotatable=0;points=[[0,0.5],[1,0.5]];portConstraint=eastwest;dropTarget=0;fontStyle=5;fontSize=10;" parent="2e49270ec7c68f3f-80" vertex="1">
          <mxGeometry y="26" width="230" height="30" as="geometry" />
        </mxCell>
        <mxCell id="2e49270ec7c68f3f-82" value="PK" style="shape=partialRectangle;top=0;left=0;bottom=0;html=1;fillColor=none;align=left;verticalAlign=middle;spacingLeft=4;spacingRight=4;whiteSpace=wrap;overflow=hidden;rotatable=0;points=[];portConstraint=eastwest;part=1;fontSize=10;" parent="2e49270ec7c68f3f-81" vertex="1" connectable="0">
          <mxGeometry width="30" height="30" as="geometry" />
        </mxCell>
        <mxCell id="2e49270ec7c68f3f-83" value="ID_ESTADO_CAMPO" style="shape=partialRectangle;top=0;left=0;right=0;bottom=0;html=1;align=left;verticalAlign=top;fillColor=none;spacingLeft=34;spacingRight=4;whiteSpace=wrap;overflow=hidden;rotatable=0;points=[[0,0.5],[1,0.5]];portConstraint=eastwest;dropTarget=0;fontSize=10;" parent="2e49270ec7c68f3f-80" vertex="1">
          <mxGeometry y="56" width="230" height="26" as="geometry" />
        </mxCell>
        <mxCell id="2e49270ec7c68f3f-84" value="FK" style="shape=partialRectangle;top=0;left=0;bottom=0;html=1;fillColor=none;align=left;verticalAlign=top;spacingLeft=4;spacingRight=4;whiteSpace=wrap;overflow=hidden;rotatable=0;points=[];portConstraint=eastwest;part=1;fontSize=10;" parent="2e49270ec7c68f3f-83" vertex="1" connectable="0">
          <mxGeometry width="30" height="26" as="geometry" />
        </mxCell>
        <mxCell id="RJYBSfsskYWp9tUyQjeH-1" value="ASB_PRM_CARGA_CANCELACION" style="swimlane;html=1;fontStyle=0;childLayout=stackLayout;horizontal=1;startSize=26;fillColor=#e0e0e0;horizontalStack=0;resizeParent=1;resizeLast=0;collapsible=1;marginBottom=0;swimlaneFillColor=#ffffff;align=center;rounded=0;shadow=0;comic=0;labelBackgroundColor=none;strokeWidth=1;fontFamily=Verdana;fontSize=10;strokeColor=#36393d;" vertex="1" parent="1">
          <mxGeometry x="455" y="120" width="230" height="160" as="geometry" />
        </mxCell>
        <mxCell id="RJYBSfsskYWp9tUyQjeH-2" value="ID_PRM_CARGA_CANCELACION" style="shape=partialRectangle;top=0;left=0;right=0;bottom=1;html=1;align=left;verticalAlign=middle;fillColor=#dae8fc;spacingLeft=34;spacingRight=4;whiteSpace=wrap;overflow=hidden;rotatable=0;points=[[0,0.5],[1,0.5]];portConstraint=eastwest;dropTarget=0;fontStyle=5;fontSize=10;strokeColor=#6c8ebf;" vertex="1" parent="RJYBSfsskYWp9tUyQjeH-1">
          <mxGeometry y="26" width="230" height="30" as="geometry" />
        </mxCell>
        <mxCell id="RJYBSfsskYWp9tUyQjeH-3" value="PK" style="shape=partialRectangle;top=0;left=0;bottom=0;html=1;fillColor=#dae8fc;align=left;verticalAlign=middle;spacingLeft=4;spacingRight=4;whiteSpace=wrap;overflow=hidden;rotatable=0;points=[];portConstraint=eastwest;part=1;fontSize=10;strokeColor=#6c8ebf;" vertex="1" connectable="0" parent="RJYBSfsskYWp9tUyQjeH-2">
          <mxGeometry width="30" height="30" as="geometry" />
        </mxCell>
        <mxCell id="RJYBSfsskYWp9tUyQjeH-4" value="ID_MOTIVO_CANCELACION" style="shape=partialRectangle;top=0;left=0;right=0;bottom=0;html=1;align=left;verticalAlign=top;fillColor=#dae8fc;spacingLeft=34;spacingRight=4;whiteSpace=wrap;overflow=hidden;rotatable=0;points=[[0,0.5],[1,0.5]];portConstraint=eastwest;dropTarget=0;fontSize=10;strokeColor=#6c8ebf;" vertex="1" parent="RJYBSfsskYWp9tUyQjeH-1">
          <mxGeometry y="56" width="230" height="26" as="geometry" />
        </mxCell>
        <mxCell id="RJYBSfsskYWp9tUyQjeH-5" value="FK" style="shape=partialRectangle;top=0;left=0;bottom=0;html=1;fillColor=#dae8fc;align=left;verticalAlign=top;spacingLeft=4;spacingRight=4;whiteSpace=wrap;overflow=hidden;rotatable=0;points=[];portConstraint=eastwest;part=1;fontSize=10;strokeColor=#6c8ebf;" vertex="1" connectable="0" parent="RJYBSfsskYWp9tUyQjeH-4">
          <mxGeometry width="30" height="26" as="geometry" />
        </mxCell>
        <mxCell id="RJYBSfsskYWp9tUyQjeH-6" value="ID_ESTADO_CAMPO" style="shape=partialRectangle;top=0;left=0;right=0;bottom=0;html=1;align=left;verticalAlign=top;fillColor=#dae8fc;spacingLeft=34;spacingRight=4;whiteSpace=wrap;overflow=hidden;rotatable=0;points=[[0,0.5],[1,0.5]];portConstraint=eastwest;dropTarget=0;fontSize=10;strokeColor=#6c8ebf;" vertex="1" parent="RJYBSfsskYWp9tUyQjeH-1">
          <mxGeometry y="82" width="230" height="26" as="geometry" />
        </mxCell>
        <mxCell id="RJYBSfsskYWp9tUyQjeH-7" value="FK" style="shape=partialRectangle;top=0;left=0;bottom=0;html=1;fillColor=#dae8fc;align=left;verticalAlign=top;spacingLeft=4;spacingRight=4;whiteSpace=wrap;overflow=hidden;rotatable=0;points=[];portConstraint=eastwest;part=1;fontSize=10;strokeColor=#6c8ebf;" vertex="1" connectable="0" parent="RJYBSfsskYWp9tUyQjeH-6">
          <mxGeometry width="30" height="26" as="geometry" />
        </mxCell>
        <mxCell id="RJYBSfsskYWp9tUyQjeH-8" value="CMP_CODIGO_PLAN_PRODUCTO" style="shape=partialRectangle;top=0;left=0;right=0;bottom=0;html=1;align=left;verticalAlign=top;fillColor=#dae8fc;spacingLeft=34;spacingRight=4;whiteSpace=wrap;overflow=hidden;rotatable=0;points=[[0,0.5],[1,0.5]];portConstraint=eastwest;dropTarget=0;fontSize=10;strokeColor=#6c8ebf;" vertex="1" parent="RJYBSfsskYWp9tUyQjeH-1">
          <mxGeometry y="108" width="230" height="26" as="geometry" />
        </mxCell>
        <mxCell id="RJYBSfsskYWp9tUyQjeH-9" value="" style="shape=partialRectangle;top=0;left=0;bottom=0;html=1;fillColor=#dae8fc;align=left;verticalAlign=top;spacingLeft=4;spacingRight=4;whiteSpace=wrap;overflow=hidden;rotatable=0;points=[];portConstraint=eastwest;part=1;fontSize=10;strokeColor=#6c8ebf;" vertex="1" connectable="0" parent="RJYBSfsskYWp9tUyQjeH-8">
          <mxGeometry width="30" height="26" as="geometry" />
        </mxCell>
        <mxCell id="RJYBSfsskYWp9tUyQjeH-10" value="CMP_LOGIN_USUARIO" style="shape=partialRectangle;top=0;left=0;right=0;bottom=0;html=1;align=left;verticalAlign=top;fillColor=#dae8fc;spacingLeft=34;spacingRight=4;whiteSpace=wrap;overflow=hidden;rotatable=0;points=[[0,0.5],[1,0.5]];portConstraint=eastwest;dropTarget=0;fontSize=10;strokeColor=#6c8ebf;" vertex="1" parent="RJYBSfsskYWp9tUyQjeH-1">
          <mxGeometry y="134" width="230" height="26" as="geometry" />
        </mxCell>
        <mxCell id="RJYBSfsskYWp9tUyQjeH-11" value="" style="shape=partialRectangle;top=0;left=0;bottom=0;html=1;fillColor=#dae8fc;align=left;verticalAlign=top;spacingLeft=4;spacingRight=4;whiteSpace=wrap;overflow=hidden;rotatable=0;points=[];portConstraint=eastwest;part=1;fontSize=10;strokeColor=#6c8ebf;" vertex="1" connectable="0" parent="RJYBSfsskYWp9tUyQjeH-10">
          <mxGeometry width="30" height="26" as="geometry" />
        </mxCell>
        <mxCell id="RJYBSfsskYWp9tUyQjeH-12" value="ASB_HIS_CANCELACION_POR_ARCHIVO" style="swimlane;html=1;fontStyle=0;childLayout=stackLayout;horizontal=1;startSize=26;fillColor=#e0e0e0;horizontalStack=0;resizeParent=1;resizeLast=0;collapsible=1;marginBottom=0;swimlaneFillColor=#ffffff;align=center;rounded=0;shadow=0;comic=0;labelBackgroundColor=none;strokeWidth=1;fontFamily=Verdana;fontSize=10;strokeColor=#666666;fontColor=#333333;" vertex="1" parent="1">
          <mxGeometry x="775" y="110" width="230" height="450" as="geometry" />
        </mxCell>
        <mxCell id="RJYBSfsskYWp9tUyQjeH-13" value="ID_HIS_CANCELACION_POR_ARCHIVO" style="shape=partialRectangle;top=0;left=0;right=0;bottom=1;html=1;align=left;verticalAlign=middle;fillColor=#dae8fc;spacingLeft=34;spacingRight=4;whiteSpace=wrap;overflow=hidden;rotatable=0;points=[[0,0.5],[1,0.5]];portConstraint=eastwest;dropTarget=0;fontStyle=5;fontSize=10;strokeColor=#6c8ebf;" vertex="1" parent="RJYBSfsskYWp9tUyQjeH-12">
          <mxGeometry y="26" width="230" height="30" as="geometry" />
        </mxCell>
        <mxCell id="RJYBSfsskYWp9tUyQjeH-14" value="PK" style="shape=partialRectangle;top=0;left=0;bottom=0;html=1;fillColor=#dae8fc;align=left;verticalAlign=middle;spacingLeft=4;spacingRight=4;whiteSpace=wrap;overflow=hidden;rotatable=0;points=[];portConstraint=eastwest;part=1;fontSize=10;strokeColor=#6c8ebf;" vertex="1" connectable="0" parent="RJYBSfsskYWp9tUyQjeH-13">
          <mxGeometry width="30" height="30" as="geometry" />
        </mxCell>
        <mxCell id="RJYBSfsskYWp9tUyQjeH-17" value="ID_ESTADO_CAMPO" style="shape=partialRectangle;top=0;left=0;right=0;bottom=0;html=1;align=left;verticalAlign=top;fillColor=#dae8fc;spacingLeft=34;spacingRight=4;whiteSpace=wrap;overflow=hidden;rotatable=0;points=[[0,0.5],[1,0.5]];portConstraint=eastwest;dropTarget=0;fontSize=10;strokeColor=#6c8ebf;" vertex="1" parent="RJYBSfsskYWp9tUyQjeH-12">
          <mxGeometry y="56" width="230" height="26" as="geometry" />
        </mxCell>
        <mxCell id="RJYBSfsskYWp9tUyQjeH-18" value="FK" style="shape=partialRectangle;top=0;left=0;bottom=0;html=1;fillColor=#dae8fc;align=left;verticalAlign=top;spacingLeft=4;spacingRight=4;whiteSpace=wrap;overflow=hidden;rotatable=0;points=[];portConstraint=eastwest;part=1;fontSize=10;strokeColor=#6c8ebf;" vertex="1" connectable="0" parent="RJYBSfsskYWp9tUyQjeH-17">
          <mxGeometry width="30" height="26" as="geometry" />
        </mxCell>
        <mxCell id="RJYBSfsskYWp9tUyQjeH-26" value="CMP_USUARIO" style="shape=partialRectangle;top=0;left=0;right=0;bottom=0;html=1;align=left;verticalAlign=top;fillColor=#dae8fc;spacingLeft=34;spacingRight=4;whiteSpace=wrap;overflow=hidden;rotatable=0;points=[[0,0.5],[1,0.5]];portConstraint=eastwest;dropTarget=0;fontSize=10;strokeColor=#6c8ebf;" vertex="1" parent="RJYBSfsskYWp9tUyQjeH-12">
          <mxGeometry y="82" width="230" height="26" as="geometry" />
        </mxCell>
        <mxCell id="RJYBSfsskYWp9tUyQjeH-27" value="" style="shape=partialRectangle;top=0;left=0;bottom=0;html=1;fillColor=#dae8fc;align=left;verticalAlign=top;spacingLeft=4;spacingRight=4;whiteSpace=wrap;overflow=hidden;rotatable=0;points=[];portConstraint=eastwest;part=1;fontSize=10;strokeColor=#6c8ebf;" vertex="1" connectable="0" parent="RJYBSfsskYWp9tUyQjeH-26">
          <mxGeometry width="30" height="26" as="geometry" />
        </mxCell>
        <mxCell id="RJYBSfsskYWp9tUyQjeH-47" value="CMP_IDENTIFICACION" style="shape=partialRectangle;top=0;left=0;right=0;bottom=0;html=1;align=left;verticalAlign=top;fillColor=#dae8fc;spacingLeft=34;spacingRight=4;whiteSpace=wrap;overflow=hidden;rotatable=0;points=[[0,0.5],[1,0.5]];portConstraint=eastwest;dropTarget=0;fontSize=10;strokeColor=#6c8ebf;" vertex="1" parent="RJYBSfsskYWp9tUyQjeH-12">
          <mxGeometry y="108" width="230" height="26" as="geometry" />
        </mxCell>
        <mxCell id="RJYBSfsskYWp9tUyQjeH-48" value="" style="shape=partialRectangle;top=0;left=0;bottom=0;html=1;fillColor=#dae8fc;align=left;verticalAlign=top;spacingLeft=4;spacingRight=4;whiteSpace=wrap;overflow=hidden;rotatable=0;points=[];portConstraint=eastwest;part=1;fontSize=10;strokeColor=#6c8ebf;" vertex="1" connectable="0" parent="RJYBSfsskYWp9tUyQjeH-47">
          <mxGeometry width="30" height="26" as="geometry" />
        </mxCell>
        <mxCell id="RJYBSfsskYWp9tUyQjeH-49" value="CMP_CERTIFICADO" style="shape=partialRectangle;top=0;left=0;right=0;bottom=0;html=1;align=left;verticalAlign=top;fillColor=#dae8fc;spacingLeft=34;spacingRight=4;whiteSpace=wrap;overflow=hidden;rotatable=0;points=[[0,0.5],[1,0.5]];portConstraint=eastwest;dropTarget=0;fontSize=10;strokeColor=#6c8ebf;" vertex="1" parent="RJYBSfsskYWp9tUyQjeH-12">
          <mxGeometry y="134" width="230" height="26" as="geometry" />
        </mxCell>
        <mxCell id="RJYBSfsskYWp9tUyQjeH-50" value="" style="shape=partialRectangle;top=0;left=0;bottom=0;html=1;fillColor=#dae8fc;align=left;verticalAlign=top;spacingLeft=4;spacingRight=4;whiteSpace=wrap;overflow=hidden;rotatable=0;points=[];portConstraint=eastwest;part=1;fontSize=10;strokeColor=#6c8ebf;" vertex="1" connectable="0" parent="RJYBSfsskYWp9tUyQjeH-49">
          <mxGeometry width="30" height="26" as="geometry" />
        </mxCell>
        <mxCell id="RJYBSfsskYWp9tUyQjeH-51" value="CMP_FECHA_INSERTA" style="shape=partialRectangle;top=0;left=0;right=0;bottom=0;html=1;align=left;verticalAlign=top;fillColor=#dae8fc;spacingLeft=34;spacingRight=4;whiteSpace=wrap;overflow=hidden;rotatable=0;points=[[0,0.5],[1,0.5]];portConstraint=eastwest;dropTarget=0;fontSize=10;strokeColor=#6c8ebf;" vertex="1" parent="RJYBSfsskYWp9tUyQjeH-12">
          <mxGeometry y="160" width="230" height="26" as="geometry" />
        </mxCell>
        <mxCell id="RJYBSfsskYWp9tUyQjeH-52" value="" style="shape=partialRectangle;top=0;left=0;bottom=0;html=1;fillColor=#dae8fc;align=left;verticalAlign=top;spacingLeft=4;spacingRight=4;whiteSpace=wrap;overflow=hidden;rotatable=0;points=[];portConstraint=eastwest;part=1;fontSize=10;strokeColor=#6c8ebf;" vertex="1" connectable="0" parent="RJYBSfsskYWp9tUyQjeH-51">
          <mxGeometry width="30" height="26" as="geometry" />
        </mxCell>
        <mxCell id="RJYBSfsskYWp9tUyQjeH-57" value="CMP_CODIGO_PRODUCTO" style="shape=partialRectangle;top=0;left=0;right=0;bottom=0;html=1;align=left;verticalAlign=top;fillColor=#dae8fc;spacingLeft=34;spacingRight=4;whiteSpace=wrap;overflow=hidden;rotatable=0;points=[[0,0.5],[1,0.5]];portConstraint=eastwest;dropTarget=0;fontSize=10;strokeColor=#6c8ebf;" vertex="1" parent="RJYBSfsskYWp9tUyQjeH-12">
          <mxGeometry y="186" width="230" height="26" as="geometry" />
        </mxCell>
        <mxCell id="RJYBSfsskYWp9tUyQjeH-58" value="" style="shape=partialRectangle;top=0;left=0;bottom=0;html=1;fillColor=#dae8fc;align=left;verticalAlign=top;spacingLeft=4;spacingRight=4;whiteSpace=wrap;overflow=hidden;rotatable=0;points=[];portConstraint=eastwest;part=1;fontSize=10;strokeColor=#6c8ebf;" vertex="1" connectable="0" parent="RJYBSfsskYWp9tUyQjeH-57">
          <mxGeometry width="30" height="26" as="geometry" />
        </mxCell>
        <mxCell id="RJYBSfsskYWp9tUyQjeH-55" value="CMP_CODIGO_PLAN" style="shape=partialRectangle;top=0;left=0;right=0;bottom=0;html=1;align=left;verticalAlign=top;fillColor=#dae8fc;spacingLeft=34;spacingRight=4;whiteSpace=wrap;overflow=hidden;rotatable=0;points=[[0,0.5],[1,0.5]];portConstraint=eastwest;dropTarget=0;fontSize=10;strokeColor=#6c8ebf;" vertex="1" parent="RJYBSfsskYWp9tUyQjeH-12">
          <mxGeometry y="212" width="230" height="26" as="geometry" />
        </mxCell>
        <mxCell id="RJYBSfsskYWp9tUyQjeH-56" value="" style="shape=partialRectangle;top=0;left=0;bottom=0;html=1;fillColor=#dae8fc;align=left;verticalAlign=top;spacingLeft=4;spacingRight=4;whiteSpace=wrap;overflow=hidden;rotatable=0;points=[];portConstraint=eastwest;part=1;fontSize=10;strokeColor=#6c8ebf;" vertex="1" connectable="0" parent="RJYBSfsskYWp9tUyQjeH-55">
          <mxGeometry width="30" height="26" as="geometry" />
        </mxCell>
        <mxCell id="RJYBSfsskYWp9tUyQjeH-53" value="CMP_PROCESO" style="shape=partialRectangle;top=0;left=0;right=0;bottom=0;html=1;align=left;verticalAlign=top;fillColor=#dae8fc;spacingLeft=34;spacingRight=4;whiteSpace=wrap;overflow=hidden;rotatable=0;points=[[0,0.5],[1,0.5]];portConstraint=eastwest;dropTarget=0;fontSize=10;strokeColor=#6c8ebf;" vertex="1" parent="RJYBSfsskYWp9tUyQjeH-12">
          <mxGeometry y="238" width="230" height="26" as="geometry" />
        </mxCell>
        <mxCell id="RJYBSfsskYWp9tUyQjeH-54" value="" style="shape=partialRectangle;top=0;left=0;bottom=0;html=1;fillColor=#dae8fc;align=left;verticalAlign=top;spacingLeft=4;spacingRight=4;whiteSpace=wrap;overflow=hidden;rotatable=0;points=[];portConstraint=eastwest;part=1;fontSize=10;strokeColor=#6c8ebf;" vertex="1" connectable="0" parent="RJYBSfsskYWp9tUyQjeH-53">
          <mxGeometry width="30" height="26" as="geometry" />
        </mxCell>
        <mxCell id="RJYBSfsskYWp9tUyQjeH-59" value="CMP_DTFECHAPROCESA" style="shape=partialRectangle;top=0;left=0;right=0;bottom=0;html=1;align=left;verticalAlign=top;fillColor=#dae8fc;spacingLeft=34;spacingRight=4;whiteSpace=wrap;overflow=hidden;rotatable=0;points=[[0,0.5],[1,0.5]];portConstraint=eastwest;dropTarget=0;fontSize=10;strokeColor=#6c8ebf;" vertex="1" parent="RJYBSfsskYWp9tUyQjeH-12">
          <mxGeometry y="264" width="230" height="26" as="geometry" />
        </mxCell>
        <mxCell id="RJYBSfsskYWp9tUyQjeH-60" value="" style="shape=partialRectangle;top=0;left=0;bottom=0;html=1;fillColor=#dae8fc;align=left;verticalAlign=top;spacingLeft=4;spacingRight=4;whiteSpace=wrap;overflow=hidden;rotatable=0;points=[];portConstraint=eastwest;part=1;fontSize=10;strokeColor=#6c8ebf;" vertex="1" connectable="0" parent="RJYBSfsskYWp9tUyQjeH-59">
          <mxGeometry width="30" height="26" as="geometry" />
        </mxCell>
        <mxCell id="RJYBSfsskYWp9tUyQjeH-61" value="CMP_NOMBRE_ARCHIVO" style="shape=partialRectangle;top=0;left=0;right=0;bottom=0;html=1;align=left;verticalAlign=top;fillColor=#dae8fc;spacingLeft=34;spacingRight=4;whiteSpace=wrap;overflow=hidden;rotatable=0;points=[[0,0.5],[1,0.5]];portConstraint=eastwest;dropTarget=0;fontSize=10;strokeColor=#6c8ebf;" vertex="1" parent="RJYBSfsskYWp9tUyQjeH-12">
          <mxGeometry y="290" width="230" height="26" as="geometry" />
        </mxCell>
        <mxCell id="RJYBSfsskYWp9tUyQjeH-62" value="" style="shape=partialRectangle;top=0;left=0;bottom=0;html=1;fillColor=#dae8fc;align=left;verticalAlign=top;spacingLeft=4;spacingRight=4;whiteSpace=wrap;overflow=hidden;rotatable=0;points=[];portConstraint=eastwest;part=1;fontSize=10;strokeColor=#6c8ebf;" vertex="1" connectable="0" parent="RJYBSfsskYWp9tUyQjeH-61">
          <mxGeometry width="30" height="26" as="geometry" />
        </mxCell>
        <mxCell id="RJYBSfsskYWp9tUyQjeH-63" value="CMP_ERRORESREGISTRO" style="shape=partialRectangle;top=0;left=0;right=0;bottom=0;html=1;align=left;verticalAlign=top;fillColor=#dae8fc;spacingLeft=34;spacingRight=4;whiteSpace=wrap;overflow=hidden;rotatable=0;points=[[0,0.5],[1,0.5]];portConstraint=eastwest;dropTarget=0;fontSize=10;strokeColor=#6c8ebf;" vertex="1" parent="RJYBSfsskYWp9tUyQjeH-12">
          <mxGeometry y="316" width="230" height="26" as="geometry" />
        </mxCell>
        <mxCell id="RJYBSfsskYWp9tUyQjeH-64" value="" style="shape=partialRectangle;top=0;left=0;bottom=0;html=1;fillColor=#dae8fc;align=left;verticalAlign=top;spacingLeft=4;spacingRight=4;whiteSpace=wrap;overflow=hidden;rotatable=0;points=[];portConstraint=eastwest;part=1;fontSize=10;strokeColor=#6c8ebf;" vertex="1" connectable="0" parent="RJYBSfsskYWp9tUyQjeH-63">
          <mxGeometry width="30" height="26" as="geometry" />
        </mxCell>
        <mxCell id="RJYBSfsskYWp9tUyQjeH-65" value="CMP_ALERTASREGISTRO" style="shape=partialRectangle;top=0;left=0;right=0;bottom=0;html=1;align=left;verticalAlign=top;fillColor=#dae8fc;spacingLeft=34;spacingRight=4;whiteSpace=wrap;overflow=hidden;rotatable=0;points=[[0,0.5],[1,0.5]];portConstraint=eastwest;dropTarget=0;fontSize=10;strokeColor=#6c8ebf;" vertex="1" parent="RJYBSfsskYWp9tUyQjeH-12">
          <mxGeometry y="342" width="230" height="26" as="geometry" />
        </mxCell>
        <mxCell id="RJYBSfsskYWp9tUyQjeH-66" value="" style="shape=partialRectangle;top=0;left=0;bottom=0;html=1;fillColor=#dae8fc;align=left;verticalAlign=top;spacingLeft=4;spacingRight=4;whiteSpace=wrap;overflow=hidden;rotatable=0;points=[];portConstraint=eastwest;part=1;fontSize=10;strokeColor=#6c8ebf;" vertex="1" connectable="0" parent="RJYBSfsskYWp9tUyQjeH-65">
          <mxGeometry width="30" height="26" as="geometry" />
        </mxCell>
        <mxCell id="RJYBSfsskYWp9tUyQjeH-67" value="CMP_MENSAJE_ERROR" style="shape=partialRectangle;top=0;left=0;right=0;bottom=0;html=1;align=left;verticalAlign=top;fillColor=#dae8fc;spacingLeft=34;spacingRight=4;whiteSpace=wrap;overflow=hidden;rotatable=0;points=[[0,0.5],[1,0.5]];portConstraint=eastwest;dropTarget=0;fontSize=10;strokeColor=#6c8ebf;" vertex="1" parent="RJYBSfsskYWp9tUyQjeH-12">
          <mxGeometry y="368" width="230" height="26" as="geometry" />
        </mxCell>
        <mxCell id="RJYBSfsskYWp9tUyQjeH-68" value="" style="shape=partialRectangle;top=0;left=0;bottom=0;html=1;fillColor=#dae8fc;align=left;verticalAlign=top;spacingLeft=4;spacingRight=4;whiteSpace=wrap;overflow=hidden;rotatable=0;points=[];portConstraint=eastwest;part=1;fontSize=10;strokeColor=#6c8ebf;" vertex="1" connectable="0" parent="RJYBSfsskYWp9tUyQjeH-67">
          <mxGeometry width="30" height="26" as="geometry" />
        </mxCell>
        <mxCell id="RJYBSfsskYWp9tUyQjeH-69" value="CMP_MENSAJE_BASE" style="shape=partialRectangle;top=0;left=0;right=0;bottom=0;html=1;align=left;verticalAlign=top;fillColor=#dae8fc;spacingLeft=34;spacingRight=4;whiteSpace=wrap;overflow=hidden;rotatable=0;points=[[0,0.5],[1,0.5]];portConstraint=eastwest;dropTarget=0;fontSize=10;strokeColor=#6c8ebf;" vertex="1" parent="RJYBSfsskYWp9tUyQjeH-12">
          <mxGeometry y="394" width="230" height="26" as="geometry" />
        </mxCell>
        <mxCell id="RJYBSfsskYWp9tUyQjeH-70" value="" style="shape=partialRectangle;top=0;left=0;bottom=0;html=1;fillColor=#dae8fc;align=left;verticalAlign=top;spacingLeft=4;spacingRight=4;whiteSpace=wrap;overflow=hidden;rotatable=0;points=[];portConstraint=eastwest;part=1;fontSize=10;strokeColor=#6c8ebf;" vertex="1" connectable="0" parent="RJYBSfsskYWp9tUyQjeH-69">
          <mxGeometry width="30" height="26" as="geometry" />
        </mxCell>
        <mxCell id="RJYBSfsskYWp9tUyQjeH-71" value="CMP_CODIGO_ERROR" style="shape=partialRectangle;top=0;left=0;right=0;bottom=0;html=1;align=left;verticalAlign=top;fillColor=#dae8fc;spacingLeft=34;spacingRight=4;whiteSpace=wrap;overflow=hidden;rotatable=0;points=[[0,0.5],[1,0.5]];portConstraint=eastwest;dropTarget=0;fontSize=10;strokeColor=#6c8ebf;" vertex="1" parent="RJYBSfsskYWp9tUyQjeH-12">
          <mxGeometry y="420" width="230" height="26" as="geometry" />
        </mxCell>
        <mxCell id="RJYBSfsskYWp9tUyQjeH-72" value="" style="shape=partialRectangle;top=0;left=0;bottom=0;html=1;fillColor=#dae8fc;align=left;verticalAlign=top;spacingLeft=4;spacingRight=4;whiteSpace=wrap;overflow=hidden;rotatable=0;points=[];portConstraint=eastwest;part=1;fontSize=10;strokeColor=#6c8ebf;" vertex="1" connectable="0" parent="RJYBSfsskYWp9tUyQjeH-71">
          <mxGeometry width="30" height="26" as="geometry" />
        </mxCell>
        <mxCell id="RJYBSfsskYWp9tUyQjeH-73" style="edgeStyle=orthogonalEdgeStyle;rounded=0;orthogonalLoop=1;jettySize=auto;html=1;entryX=0;entryY=0.5;entryDx=0;entryDy=0;endArrow=ERzeroToMany;endFill=0;startArrow=ERone;startFill=0;" edge="1" parent="1" source="2e49270ec7c68f3f-83" target="RJYBSfsskYWp9tUyQjeH-4">
          <mxGeometry relative="1" as="geometry" />
        </mxCell>
      </root>
    </mxGraphModel>
  </diagram>
</mxfile>
